<?xml version="1.0" encoding="UTF-8" standalone="no"?>
<svg
   width="14"
   height="14"
   viewBox="0 0 14 14"
   version="1.1"
   id="svg1"
   sodipodi:docname="account2.svg"
   xmlns:inkscape="http://www.inkscape.org/namespaces/inkscape"
   xmlns:sodipodi="http://sodipodi.sourceforge.net/DTD/sodipodi-0.dtd"
   xmlns="http://www.w3.org/2000/svg"
   xmlns:svg="http://www.w3.org/2000/svg">
  <defs
     id="defs1" />
  <sodipodi:namedview
     id="namedview1"
     pagecolor="#ffffff"
     bordercolor="#000000"
     borderopacity="0.25"
     inkscape:showpageshadow="2"
     inkscape:pageopacity="0.0"
     inkscape:pagecheckerboard="0"
     inkscape:deskcolor="#d1d1d1"
     showguides="false">
    <inkscape:page
       x="0"
       y="0"
       width="14"
       height="14"
       id="page2"
       margin="0"
       bleed="0" />
  </sodipodi:namedview>
  <path
     fill="#000"
     d="M 7,1.6791045 A 5.3731345,5.3731345 0 1 0 7,12.425374 5.3731345,5.3731345 0 0 0 7,1.6791045 M 0.73134332,7.0522388 a 6.2686567,6.2686567 0 1 1 12.53731368,0 6.2686567,6.2686567 0 0 1 -12.53731368,0 M 7,10.858209 c 1.7310448,0 3.134329,-1.0871645 3.134329,-2.718806 0,-0.6008956 -0.4871653,-1.0871642 -1.0871648,-1.0871642 H 4.9537313 c -0.6008955,0 -1.0871642,0.4871642 -1.0871642,1.0871642 0,1.6307465 1.4032836,2.718806 3.1343284,2.718806 z M 7,6.380597 A 1.6786568,1.6786568 0 1 0 7.0008955,3.0232836 1.6786568,1.6786568 0 0 0 7,6.380597"
     id="path1"
     style="fill:#ffffff;fill-opacity:1;stroke-width:0.895522" />
</svg>
