<?xml version="1.0" encoding="UTF-8" standalone="no"?>
<svg
   width="16"
   height="16"
   viewBox="0 0 16 16"
   version="1.1"
   id="svg1"
   sodipodi:docname="home.svg"
   inkscape:export-filename="home.svg"
   inkscape:export-xdpi="96"
   inkscape:export-ydpi="96"
   xmlns:inkscape="http://www.inkscape.org/namespaces/inkscape"
   xmlns:sodipodi="http://sodipodi.sourceforge.net/DTD/sodipodi-0.dtd"
   xmlns="http://www.w3.org/2000/svg"
   xmlns:svg="http://www.w3.org/2000/svg">
  <defs
     id="defs1" />
  <sodipodi:namedview
     id="namedview1"
     pagecolor="#ffffff"
     bordercolor="#000000"
     borderopacity="0.25"
     inkscape:showpageshadow="2"
     inkscape:pageopacity="0.0"
     inkscape:pagecheckerboard="0"
     inkscape:deskcolor="#d1d1d1">
    <inkscape:page
       x="0"
       y="0"
       width="16"
       height="16"
       id="page2"
       margin="0"
       bleed="0" />
  </sodipodi:namedview>
  <path
     fill="#000"
     fill-rule="evenodd"
     d="M 12.5,12.618 C 12.807,12.343 13,11.944 13,11.5 V 6.977 A 1.5,1.5 0 0 0 12.415,5.788 l -3.5,-2.692 a 1.5,1.5 0 0 0 -1.83,0 l -3.5,2.692 A 1.5,1.5 0 0 0 3,6.978 V 11.5 A 1.496,1.496 0 0 0 4.493,13 H 5 V 9.5 a 2,2 0 0 1 2,-2 h 2 a 2,2 0 0 1 2,2 V 13 h 0.507 c 0.381,-0.002 0.73,-0.146 0.993,-0.382 m 2,-1.118 a 3,3 0 0 1 -3,3 h -7 a 3,3 0 0 1 -3,-3 V 6.977 A 3,3 0 0 1 2.67,4.6 l 3.5,-2.692 a 3,3 0 0 1 3.66,0 l 3.5,2.692 a 3,3 0 0 1 1.17,2.378 z m -5,-2 A 0.5,0.5 0 0 0 9,9 H 7 A 0.5,0.5 0 0 0 6.5,9.5 V 13 h 3 z"
     clip-rule="evenodd"
     id="path1"
     style="fill:#ffffff;fill-opacity:1" />
</svg>
